<?xml version="1.0" encoding="UTF-8"?>
<svg width="200px" height="200px" viewBox="0 0 200 200" version="1.1" xmlns="http://www.w3.org/2000/svg" xmlns:xlink="http://www.w3.org/1999/xlink">
    <title>logo-primary</title>
    <defs>
        <linearGradient x1="103.50793%" y1="-12.7098829%" x2="48.2225553%" y2="114.241099%" id="linearGradient-1">
            <stop stop-color="#29CDFF" offset="0%"></stop>
            <stop stop-color="#148EFF" offset="49.1836411%"></stop>
            <stop stop-color="#0A60FF" offset="100%"></stop>
        </linearGradient>
        <linearGradient x1="50%" y1="0%" x2="40.295198%" y2="104.322421%" id="linearGradient-2">
            <stop stop-color="#AEC3E4" offset="0%"></stop>
            <stop stop-color="#FFFFFF" offset="100%"></stop>
        </linearGradient>
    </defs>
    <g id="页面-1" stroke="none" stroke-width="1" fill="none" fill-rule="evenodd">
        <g id="logo-primary">
            <path d="M32,0 L168,0 C185.673112,-3.24649801e-15 200,14.326888 200,32 L200,168 C200,185.673112 185.673112,200 168,200 L32,200 C14.326888,200 1.63751867e-14,185.673112 0,168 L0,32 C-2.164332e-15,14.326888 14.326888,1.74573527e-14 32,0 Z" id="Rectangle-22-Copy-3备份-3" fill="url(#linearGradient-1)" fill-rule="nonzero"></path>
            <g id="图形" transform="translate(20.000000, 20.000000)">
                <g transform="translate(4.000000, 34.000000)">
                    <path d="M47.5487749,2.32095337 C55.330265,-2.15684064 65.2683783,0.521334142 69.7461723,8.30282418 L69.7461723,8.30282418 L110.010941,78.2747559 C112.507454,82.6131853 111.035571,88.1532061 106.714971,90.6804515 C106.70106,90.6885884 106.687127,90.696688 106.673173,90.7047501 C102.371199,93.1901663 96.8689331,91.7175558 94.3835169,87.4155824 L94.3835169,87.4155824 L58.1482265,24.6964072 C57.8806198,24.2332105 57.4958197,23.8486016 57.0324901,23.5812252 C55.5744919,22.7398494 53.710481,23.2397207 52.8691052,24.6977189 L52.8691052,24.6977189 L16.5871433,87.5697898 C16.5736951,87.5930938 16.5601408,87.6163363 16.5464808,87.6395167 C14.0638539,91.8524078 8.63606414,93.255064 4.42317305,90.7724372 C0.158828816,88.2594893 -1.2871543,82.781618 1.18137323,78.491407 L1.18137323,78.491407 L41.566565,8.30341354 C42.9976641,5.81621541 45.0616367,3.7521565 47.5487749,2.32095337 Z" id="形状结合" fill="#FFFFFF"></path>
                    <path d="M108.14407,4.51739317 C108.147347,4.52301923 108.150619,4.52864881 108.153885,4.5342819 L135.691801,52.0361125 C138.219257,56.3958759 136.742954,61.9787099 132.390806,64.5192565 C128.05595,67.0497084 122.490519,65.5869504 119.960067,61.2520952 C119.955329,61.2439774 119.950603,61.2358522 119.945889,61.2277197 L92.4047651,13.7096675 C89.8792897,9.35234078 91.3575208,3.77299489 95.709165,1.23774055 C100.04862,-1.29041247 105.615917,0.177938025 108.14407,4.51739317 Z" id="形状结合" fill="#FFFFFF"></path>
                    <path d="M142.907411,91.7231751 C147.929109,91.7231751 152,87.6595745 152,82.6468691 C152,77.6341637 147.929109,73.5705632 142.907411,73.5705632 C137.885712,73.5705632 133.814822,77.6341637 133.814822,82.6468691 C133.814822,87.6595745 137.885712,91.7231751 142.907411,91.7231751 Z" id="椭圆形备份-7" fill="#FFFFFF"></path>
                    <path d="M65.5665433,14.7074499 C70.6076588,14.7074499 74.4408416,16.6504183 77.0660916,20.5363551 L77.0660916,20.5363551 L110.287775,78.0325007 C112.79203,82.3665677 111.317612,87.9097806 106.991027,90.426939 C102.667525,92.9423035 97.1235942,91.4781385 94.6058936,87.1559965 L94.6058936,87.1559965 L63.4352337,33.6452585 L58.2810362,24.6561291 C58.0142365,24.1908197 57.629372,23.8041547 57.1653129,23.5351862 C55.7089084,22.6910547 53.8439555,23.1874001 52.999824,24.6438046 L52.999824,24.6438046 L52.8887599,24.8354268 C56.2995001,18.0834422 60.5254279,14.7074499 65.5665433,14.7074499 Z" id="形状结合" fill="url(#linearGradient-2)"></path>
                </g>
            </g>
        </g>
    </g>
</svg>